<svg width="32" height="36" viewBox="0 0 32 36" fill="none" xmlns="http://www.w3.org/2000/svg">
<rect width="2.92305" height="16.7606" rx="1.46153" transform="matrix(0.870303 0.492517 -0.50752 0.86164 18.0229 7)" fill="#14141F"/>
<path d="M7.43831 24.9672C8.11851 23.8124 9.61549 23.4113 10.7819 24.0714L11.2139 24.3159L9.55722 27.1284C9.14756 27.8239 8.24598 28.0655 7.54349 27.6679C6.841 27.2704 6.60362 26.3843 7.01328 25.6888L7.43831 24.9672Z" fill="#14141F"/>
<rect x="21.6465" y="23.0277" width="2.87931" height="6.85414" rx="1.43965" transform="rotate(-90 21.6465 23.0277)" fill="#14141F"/>
<path d="M6.43966 23.0277C5.64456 23.0277 5 22.3832 5 21.5881C5 20.793 5.64456 20.1484 6.43965 20.1484H17.1998C18.79 20.1484 20.0791 21.4375 20.0791 23.0277H6.43966Z" fill="#14141F"/>
<rect width="2.92305" height="5.85519" rx="1.46153" transform="matrix(0.870302 -0.492517 0.50752 0.86164 12.834 8.44019)" fill="#14141F"/>
<path d="M18.1451 17.4556C17.3258 16.0646 17.8006 14.2925 19.2056 13.4974L26.3865 25.6888C26.7962 26.3843 26.5588 27.2704 25.8563 27.6679C25.1538 28.0655 24.2522 27.8239 23.8426 27.1284L18.1451 17.4556Z" fill="#14141F"/>
</svg>
