<svg width="252" height="217" viewBox="0 0 252 217" fill="none" xmlns="http://www.w3.org/2000/svg">
<g filter="url(#filter0_b_1_50)">
<g filter="url(#filter1_b_1_50)">
<rect width="224.2" height="145.071" rx="10" transform="matrix(0.938191 -0.346117 -0.285354 0.958422 41.3965 77.6016)" fill="url(#paint0_linear_1_50)" fill-opacity="0.88"/>
</g>
<path d="M52.4917 120.886L51.5874 123.923L50.0152 124.503L50.9195 121.466L52.4917 120.886ZM47.2945 137.77L46.4699 140.539L44.8977 141.119L45.7223 138.35L47.2945 137.77ZM49.4085 133.984C49.525 133.592 49.5536 133.286 49.4942 133.063C49.4416 132.838 49.2924 132.676 49.0467 132.577C48.8077 132.476 48.4592 132.422 48.0011 132.413C47.2298 132.392 46.5688 132.312 46.0181 132.173C45.4761 132.025 45.1062 131.731 44.9083 131.291C44.7125 130.844 44.7474 130.174 45.0131 129.282C45.2665 128.43 45.6844 127.62 46.2667 126.849C46.8491 126.078 47.5397 125.395 48.3386 124.801C49.1463 124.198 50.0171 123.724 50.951 123.379C51.6632 123.117 52.2755 122.988 52.7879 122.995C53.3024 122.994 53.7056 123.127 53.9975 123.392C54.2914 123.65 54.4604 124.037 54.5043 124.552C54.5482 125.067 54.4558 125.709 54.2269 126.478L51.3344 127.545C51.457 127.133 51.5217 126.786 51.5283 126.502C51.535 126.219 51.486 126.002 51.3814 125.851C51.2835 125.697 51.1357 125.611 50.9379 125.593C50.7421 125.567 50.5065 125.605 50.231 125.707C49.8212 125.858 49.4607 126.064 49.1497 126.326C48.8386 126.587 48.5807 126.881 48.3759 127.207C48.18 127.524 48.0289 127.86 47.9226 128.217C47.8184 128.567 47.7879 128.851 47.8312 129.067C47.8812 129.28 48.028 129.44 48.2717 129.546C48.5174 129.645 48.8753 129.708 49.3454 129.736C50.1167 129.757 50.7723 129.845 51.3122 130C51.8521 130.156 52.221 130.453 52.4189 130.893C52.6167 131.334 52.5828 132 52.3172 132.892C52.0536 133.778 51.6272 134.607 51.0381 135.38C50.4511 136.147 49.7457 136.829 48.922 137.426C48.1003 138.016 47.2124 138.487 46.2583 138.839C45.6402 139.067 45.05 139.212 44.4876 139.272C43.9273 139.326 43.4547 139.256 43.0699 139.062C42.6851 138.868 42.4379 138.513 42.3282 137.998C42.2206 137.476 42.3037 136.754 42.5775 135.835L45.4801 134.764C45.3309 135.265 45.2701 135.66 45.2976 135.949C45.3271 136.232 45.4164 136.434 45.5655 136.556C45.7232 136.669 45.9243 136.717 46.1685 136.7C46.4127 136.684 46.6726 136.624 46.948 136.523C47.378 136.364 47.7543 136.155 48.0768 135.895C48.4059 135.634 48.682 135.339 48.9048 135.013C49.1364 134.677 49.3043 134.334 49.4085 133.984ZM70.2027 124.828L69.5099 127.154L58.9378 131.055L59.3332 129.305L68.4026 117.133L70.7105 116.282L66.939 121.477L62.3719 127.717L70.2027 124.828ZM71.3353 116.052L66.8722 131.042L63.9697 132.113L68.4328 117.122L71.3353 116.052ZM82.1045 111.941L82.5278 111.785L81.8228 114.153L81.6515 114.216C80.8855 114.499 80.1688 114.867 79.5014 115.321C78.8339 115.775 78.2275 116.295 77.6822 116.881C77.1457 117.458 76.6766 118.089 76.2751 118.775C75.8802 119.458 75.5714 120.174 75.3487 120.922L74.6069 123.414C74.4475 123.949 74.3569 124.404 74.335 124.779C74.322 125.144 74.372 125.428 74.4851 125.631C74.607 125.824 74.7818 125.94 75.0097 125.978C75.2396 126.009 75.5226 125.963 75.8585 125.839C76.1743 125.722 76.4803 125.548 76.7765 125.317C77.0794 125.083 77.3583 124.809 77.6133 124.495C77.877 124.171 78.106 123.824 78.3002 123.453C78.5032 123.073 78.6649 122.68 78.7855 122.275C78.9061 121.87 78.967 121.515 78.9684 121.209C78.9766 120.9 78.9233 120.657 78.8088 120.48C78.6963 120.295 78.5261 120.184 78.2982 120.146C78.0703 120.107 77.7884 120.15 77.4524 120.274C76.9956 120.443 76.5597 120.701 76.145 121.05C75.739 121.389 75.3885 121.763 75.0935 122.171C74.7985 122.579 74.5891 122.971 74.4653 123.347L73.7602 123.094C73.9377 122.558 74.1944 122.017 74.5302 121.471C74.8728 120.924 75.2729 120.403 75.7306 119.911C76.1971 119.409 76.7095 118.963 77.268 118.573C77.8286 118.177 78.4213 117.864 79.0461 117.633C79.7314 117.381 80.2929 117.293 80.7306 117.369C81.1749 117.444 81.5023 117.65 81.7128 117.988C81.9232 118.326 82.0248 118.768 82.0176 119.314C82.0104 119.861 81.9036 120.48 81.6972 121.174C81.4806 121.901 81.1617 122.621 80.7406 123.332C80.3262 124.041 79.8312 124.709 79.2555 125.337C78.6865 125.962 78.0609 126.517 77.3785 127.001C76.6962 127.485 75.9787 127.866 75.2262 128.143C74.4468 128.431 73.7809 128.548 73.2285 128.495C72.6848 128.433 72.2632 128.222 71.9636 127.862C71.6641 127.502 71.4984 127.004 71.4664 126.368C71.4411 125.73 71.5572 124.979 71.8147 124.114L72.158 122.961C72.5177 121.753 73.018 120.584 73.6591 119.456C74.3088 118.318 75.0689 117.262 75.9393 116.287C76.8117 115.305 77.7685 114.442 78.8095 113.697C79.8506 112.953 80.9489 112.367 82.1045 111.941ZM82.6474 123.948C82.7782 123.509 83.0354 123.087 83.4189 122.683C83.8091 122.276 84.2528 121.981 84.75 121.798C85.2472 121.614 85.5997 121.616 85.8074 121.802C86.0219 121.985 86.0637 122.297 85.9329 122.736C85.8022 123.175 85.5416 123.598 85.1514 124.005C84.7679 124.409 84.3276 124.703 83.8304 124.886C83.3332 125.07 82.9774 125.07 82.7629 124.886C82.5551 124.7 82.5166 124.387 82.6474 123.948ZM93.5336 113.388L95.0856 112.816C95.5828 112.632 96.0182 112.395 96.3918 112.105C96.7674 111.807 97.0795 111.472 97.3281 111.1C97.5854 110.718 97.7774 110.314 97.9041 109.888C98.0185 109.504 98.0458 109.191 97.9858 108.951C97.9346 108.701 97.7858 108.548 97.5392 108.492C97.2946 108.43 96.9473 108.482 96.4971 108.648C96.141 108.779 95.7903 108.973 95.4451 109.228C95.0998 109.484 94.7977 109.776 94.5386 110.103C94.2795 110.431 94.0948 110.78 93.9845 111.151L91.0719 112.225C91.3171 111.402 91.7456 110.605 92.3575 109.836C92.9761 109.064 93.7027 108.371 94.5372 107.758C95.3717 107.144 96.2291 106.675 97.1093 106.351C98.1036 105.984 98.9247 105.827 99.5724 105.882C100.222 105.929 100.661 106.192 100.89 106.67C101.118 107.147 101.094 107.853 100.816 108.787C100.675 109.26 100.43 109.76 100.083 110.285C99.7367 110.804 99.3092 111.316 98.7998 111.821C98.2991 112.318 97.7316 112.778 97.0971 113.201C96.4647 113.618 95.7924 113.957 95.0802 114.22L93.0646 114.964L93.5336 113.388ZM92.8623 115.643L93.319 114.109L95.3347 113.366C96.1342 113.071 96.8087 112.904 97.3582 112.866C97.9078 112.829 98.3353 112.909 98.641 113.108C98.9486 113.3 99.1361 113.594 99.2034 113.991C99.2727 114.381 99.2226 114.861 99.0529 115.431C98.8445 116.131 98.5275 116.804 98.102 117.449C97.6785 118.088 97.1721 118.684 96.5826 119.238C95.9999 119.789 95.3632 120.28 94.6723 120.713C93.9835 121.138 93.2663 121.488 92.5205 121.763C91.9023 121.991 91.3198 122.13 90.7729 122.179C90.2348 122.218 89.776 122.152 89.3965 121.981C89.0257 121.8 88.7755 121.495 88.646 121.066C88.5253 120.628 88.5753 120.038 88.796 119.297L91.7086 118.223C91.5941 118.607 91.586 118.915 91.6842 119.148C91.7824 119.381 91.9706 119.522 92.2487 119.572C92.5336 119.62 92.8809 119.568 93.2908 119.417C93.7544 119.246 94.1763 119.014 94.5567 118.721C94.9457 118.418 95.2746 118.077 95.5433 117.697C95.8208 117.307 96.0228 116.9 96.1495 116.474C96.313 115.925 96.3464 115.522 96.2496 115.264C96.1549 115 95.9497 114.856 95.6338 114.832C95.318 114.807 94.9115 114.887 94.4143 115.071L92.8623 115.643ZM102.525 115.882L102.717 115.811C103.523 115.514 104.244 115.159 104.882 114.747C105.527 114.325 106.096 113.853 106.586 113.33C107.077 112.806 107.496 112.233 107.843 111.61C108.192 110.981 108.473 110.309 108.685 109.595L109.531 106.754C109.693 106.211 109.781 105.754 109.796 105.382C109.818 105.007 109.771 104.722 109.656 104.526C109.55 104.321 109.389 104.197 109.175 104.154C108.967 104.108 108.712 104.141 108.41 104.253C108.087 104.372 107.777 104.56 107.479 104.816C107.184 105.066 106.908 105.36 106.651 105.699C106.402 106.035 106.177 106.399 105.976 106.791C105.785 107.173 105.632 107.557 105.517 107.941C105.403 108.325 105.337 108.676 105.32 108.994C105.305 109.305 105.346 109.562 105.441 109.766C105.538 109.962 105.694 110.091 105.909 110.152C106.126 110.206 106.412 110.168 106.768 110.036C107.111 109.91 107.436 109.732 107.744 109.502C108.06 109.264 108.345 109 108.599 108.711C108.859 108.419 109.079 108.121 109.26 107.816C109.447 107.509 109.581 107.218 109.663 106.943L110.461 107.125C110.318 107.606 110.076 108.117 109.736 108.658C109.395 109.199 108.986 109.728 108.509 110.247C108.041 110.755 107.537 111.21 107 111.61C106.462 112.01 105.924 112.309 105.387 112.507C104.701 112.76 104.131 112.858 103.676 112.799C103.223 112.734 102.879 112.544 102.644 112.227C102.418 111.901 102.302 111.467 102.296 110.926C102.29 110.384 102.393 109.757 102.606 109.043C102.822 108.315 103.14 107.59 103.558 106.867C103.983 106.142 104.484 105.457 105.059 104.811C105.64 104.162 106.275 103.589 106.961 103.092C107.656 102.585 108.377 102.194 109.123 101.919C109.868 101.644 110.503 101.541 111.026 101.61C111.55 101.68 111.949 101.905 112.225 102.286C112.502 102.661 112.647 103.178 112.659 103.84C112.678 104.499 112.552 105.285 112.28 106.197L111.974 107.227C111.684 108.202 111.31 109.146 110.852 110.06C110.401 110.972 109.87 111.843 109.258 112.674C108.654 113.495 107.979 114.258 107.231 114.961C106.49 115.662 105.685 116.286 104.817 116.833C103.948 117.379 103.024 117.833 102.043 118.195L101.811 118.281L102.525 115.882ZM114.377 111.509L114.569 111.439C115.375 111.141 116.096 110.786 116.734 110.374C117.379 109.953 117.948 109.48 118.438 108.957C118.929 108.434 119.348 107.861 119.695 107.238C120.044 106.608 120.325 105.936 120.537 105.223L121.383 102.381C121.545 101.839 121.633 101.382 121.648 101.009C121.67 100.635 121.623 100.35 121.508 100.154C121.402 99.9487 121.241 99.8246 121.027 99.7815C120.819 99.7359 120.564 99.7689 120.262 99.8805C119.939 99.9994 119.629 100.187 119.331 100.444C119.036 100.693 118.76 100.987 118.503 101.326C118.254 101.663 118.029 102.027 117.828 102.419C117.637 102.801 117.484 103.184 117.369 103.569C117.255 103.953 117.189 104.304 117.172 104.622C117.157 104.933 117.198 105.19 117.293 105.393C117.39 105.59 117.546 105.718 117.761 105.78C117.978 105.834 118.264 105.795 118.62 105.664C118.963 105.538 119.288 105.36 119.596 105.13C119.912 104.891 120.197 104.627 120.451 104.338C120.711 104.047 120.931 103.748 121.112 103.444C121.299 103.136 121.433 102.845 121.515 102.571L122.313 102.753C122.17 103.233 121.928 103.744 121.588 104.285C121.247 104.826 120.838 105.356 120.361 105.874C119.893 106.383 119.389 106.837 118.852 107.237C118.314 107.637 117.776 107.937 117.239 108.135C116.553 108.388 115.983 108.485 115.528 108.427C115.075 108.362 114.731 108.171 114.496 107.854C114.27 107.528 114.154 107.095 114.148 106.553C114.142 106.012 114.245 105.384 114.458 104.67C114.674 103.943 114.992 103.218 115.41 102.495C115.835 101.77 116.336 101.084 116.911 100.438C117.492 99.7901 118.127 99.217 118.813 98.7194C119.508 98.2124 120.229 97.8214 120.974 97.5462C121.72 97.2711 122.355 97.1683 122.878 97.2379C123.402 97.3075 123.801 97.5328 124.077 97.9139C124.354 98.2882 124.499 98.806 124.511 99.4674C124.53 100.126 124.404 100.912 124.132 101.825L123.826 102.855C123.536 103.829 123.162 104.774 122.704 105.688C122.253 106.6 121.722 107.471 121.11 108.302C120.506 109.123 119.831 109.885 119.083 110.589C118.342 111.29 117.537 111.914 116.669 112.46C115.8 113.007 114.876 113.461 113.895 113.823L113.663 113.908L114.377 111.509Z" fill="white"/>
<path d="M36.8072 161.685C36.9464 161.658 37.0453 161.689 37.1038 161.777C37.1624 161.864 37.1681 161.987 37.1209 162.146C37.0783 162.289 37.0056 162.428 36.9028 162.564C36.8033 162.696 36.6794 162.817 36.531 162.926C36.3827 163.036 36.2197 163.123 36.042 163.189L34.9124 163.605L35.7092 160.929L36.79 160.531C36.9676 160.465 37.1114 160.438 37.2215 160.45C37.3341 160.461 37.4074 160.507 37.4412 160.587C37.4776 160.667 37.4759 160.774 37.4364 160.906C37.39 161.062 37.3099 161.208 37.1961 161.343C37.0849 161.478 36.9552 161.591 36.8072 161.685ZM35.9058 161.84L36.3862 161.662C36.5113 161.616 36.616 161.553 36.7002 161.472C36.7853 161.388 36.8438 161.292 36.8758 161.185C36.9077 161.078 36.8987 161.007 36.8486 160.973C36.7986 160.939 36.711 160.945 36.5859 160.992L36.1056 161.169L35.9058 161.84ZM36.0971 162.779C36.2247 162.732 36.3326 162.665 36.421 162.578C36.5118 162.49 36.5739 162.39 36.6074 162.277C36.6416 162.162 36.6308 162.086 36.5747 162.05C36.5195 162.011 36.428 162.016 36.3004 162.063L35.7825 162.254L35.568 162.974L36.0971 162.779ZM38.298 160.241C38.2054 160.275 38.1366 160.274 38.0916 160.238C38.0498 160.199 38.0422 160.135 38.0689 160.045C38.0955 159.956 38.1476 159.871 38.2251 159.79C38.306 159.705 38.3926 159.646 38.4852 159.612C38.5778 159.578 38.645 159.58 38.6867 159.619C38.7318 159.655 38.741 159.718 38.7144 159.807C38.6877 159.897 38.634 159.983 38.5532 160.068C38.4756 160.149 38.3906 160.206 38.298 160.241ZM38.4816 160.398L37.8493 162.522L37.3239 162.716L37.9562 160.592L38.4816 160.398ZM38.98 161.712L39.9069 161.37L39.7757 161.811L38.252 162.373L38.381 161.94L39.6613 160.355L38.7569 160.689L38.8881 160.248L40.3967 159.692L40.2678 160.125L38.98 161.712ZM40.3658 160.641C40.4297 160.427 40.5277 160.221 40.6597 160.024C40.7942 159.827 40.9474 159.657 41.1191 159.514C41.2908 159.371 41.4655 159.266 41.6432 159.201C41.7783 159.151 41.898 159.134 42.0023 159.15C42.1074 159.164 42.1814 159.207 42.2243 159.28L42.5244 158.272L43.0573 158.075L42.2127 160.912L41.6798 161.109L41.7734 160.794C41.6771 160.923 41.5607 161.041 41.4241 161.148C41.2875 161.256 41.1416 161.338 40.9865 161.395C40.8114 161.46 40.665 161.473 40.5473 161.434C40.4295 161.396 40.3529 161.309 40.3173 161.175C40.2849 161.036 40.3011 160.859 40.3658 160.641ZM41.9997 160.045C42.0385 159.915 42.0466 159.813 42.024 159.74C42.0021 159.663 41.9558 159.617 41.8852 159.6C41.8154 159.58 41.7317 159.588 41.6341 159.624C41.5365 159.66 41.4392 159.718 41.3422 159.797C41.2452 159.876 41.1564 159.972 41.0757 160.086C40.9982 160.196 40.9405 160.316 40.9024 160.443C40.8644 160.571 40.8559 160.674 40.8771 160.753C40.9014 160.828 40.9473 160.876 41.0146 160.897C41.0845 160.917 41.1669 160.909 41.262 160.874C41.3596 160.838 41.4581 160.78 41.5577 160.7C41.6579 160.617 41.7468 160.521 41.8242 160.41C41.9024 160.297 41.9609 160.176 41.9997 160.045ZM42.9092 159.703C42.9731 159.488 43.0711 159.283 43.2031 159.086C43.3376 158.889 43.4895 158.719 43.6587 158.577C43.8305 158.434 44.0052 158.33 44.1828 158.264C44.3379 158.207 44.4635 158.189 44.5596 158.21C44.6581 158.231 44.728 158.277 44.7691 158.348L44.8593 158.045L45.3884 157.85L44.7561 159.974L44.2269 160.169L44.3194 159.859C44.2222 159.983 44.1036 160.101 43.9637 160.212C43.8271 160.319 43.6813 160.401 43.5261 160.458C43.351 160.523 43.2046 160.536 43.0869 160.497C42.9717 160.458 42.8963 160.371 42.8607 160.236C42.8283 160.098 42.8445 159.92 42.9092 159.703ZM44.5431 159.107C44.5819 158.977 44.59 158.875 44.5673 158.801C44.5455 158.725 44.4992 158.679 44.4286 158.661C44.3588 158.642 44.2751 158.65 44.1775 158.686C44.0799 158.722 43.9826 158.779 43.8856 158.858C43.7886 158.937 43.6997 159.034 43.619 159.148C43.5416 159.258 43.4839 159.377 43.4458 159.505C43.4078 159.633 43.3993 159.736 43.4204 159.815C43.4448 159.89 43.4907 159.938 43.558 159.959C43.6279 159.978 43.7103 159.971 43.8054 159.936C43.903 159.9 44.0015 159.842 44.101 159.762C44.2013 159.679 44.2902 159.583 44.3676 159.472C44.4458 159.359 44.5043 159.237 44.5431 159.107ZM49.133 155.977L48.3363 158.653L47.8109 158.847L48.1499 157.708L47.0278 158.122L46.6888 159.261L46.1634 159.455L46.9601 156.779L47.4855 156.585L47.1579 157.685L48.28 157.271L48.6076 156.171L49.133 155.977ZM49.0367 157.443C49.1007 157.228 49.1986 157.022 49.3307 156.826C49.4652 156.628 49.6171 156.458 49.7863 156.316C49.958 156.173 50.1327 156.069 50.3104 156.003C50.4655 155.946 50.5911 155.928 50.6871 155.95C50.7857 155.97 50.8555 156.016 50.8967 156.087L50.9868 155.785L51.516 155.589L50.8836 157.713L50.3545 157.908L50.4469 157.598C50.3497 157.723 50.2312 157.84 50.0913 157.951C49.9547 158.058 49.8088 158.14 49.6537 158.198C49.4786 158.262 49.3322 158.275 49.2144 158.237C49.0992 158.198 49.0238 158.11 48.9882 157.976C48.9559 157.837 48.9721 157.66 49.0367 157.443ZM50.6707 156.847C50.7095 156.716 50.7176 156.614 50.6949 156.541C50.673 156.465 50.6268 156.418 50.5562 156.401C50.4863 156.381 50.4026 156.389 50.3051 156.425C50.2075 156.461 50.1102 156.519 50.0132 156.598C49.9162 156.677 49.8273 156.773 49.7466 156.887C49.6692 156.998 49.6114 157.117 49.5734 157.245C49.5353 157.372 49.5269 157.476 49.548 157.554C49.5724 157.629 49.6182 157.677 49.6856 157.698C49.7554 157.718 49.8379 157.71 49.933 157.675C50.0305 157.639 50.1291 157.581 50.2286 157.501C50.3289 157.419 50.4177 157.322 50.4952 157.212C50.5734 157.099 50.6319 156.977 50.6707 156.847ZM54.6201 154.417C54.8753 154.323 55.0565 154.328 55.1637 154.431C55.2741 154.532 55.2867 154.725 55.2015 155.011L54.8305 156.257L54.3052 156.451L54.6544 155.278C54.7039 155.112 54.7003 155 54.6436 154.944C54.5877 154.885 54.4884 154.882 54.3458 154.934C54.2032 154.987 54.076 155.074 53.9643 155.195C53.8559 155.312 53.777 155.454 53.7275 155.62L53.3782 156.793L52.8528 156.987L53.2021 155.814C53.2516 155.648 53.248 155.536 53.1913 155.48C53.1353 155.421 53.0361 155.418 52.8935 155.47C52.7484 155.524 52.62 155.611 52.5083 155.732C52.3998 155.849 52.3209 155.991 52.2714 156.157L51.9221 157.33L51.3968 157.524L52.0291 155.4L52.5545 155.206L52.478 155.463C52.5722 155.349 52.6794 155.247 52.7997 155.157C52.9225 155.066 53.0477 154.997 53.1753 154.95C53.3379 154.89 53.4724 154.872 53.5787 154.897C53.6857 154.919 53.7549 154.982 53.7861 155.086C53.8902 154.939 54.0171 154.804 54.1667 154.683C54.3189 154.561 54.47 154.472 54.6201 154.417ZM58.5525 152.966C58.8077 152.872 58.9889 152.877 59.096 152.981C59.2065 153.081 59.2191 153.274 59.1338 153.561L58.7629 154.806L58.2375 155L58.5868 153.827C58.6362 153.661 58.6326 153.55 58.5759 153.493C58.52 153.434 58.4207 153.431 58.2781 153.484C58.1355 153.536 58.0084 153.623 57.8967 153.744C57.7882 153.861 57.7093 154.003 57.6598 154.169L57.3106 155.342L56.7852 155.536L57.1344 154.363C57.1839 154.197 57.1803 154.086 57.1236 154.029C57.0677 153.97 56.9684 153.967 56.8258 154.02C56.6807 154.073 56.5523 154.16 56.4406 154.281C56.3322 154.398 56.2532 154.54 56.2038 154.706L55.8545 155.879L55.3291 156.073L55.9614 153.949L56.4868 153.756L56.4104 154.012C56.5045 153.898 56.6118 153.796 56.7321 153.706C56.8549 153.615 56.9801 153.546 57.1077 153.499C57.2703 153.439 57.4047 153.421 57.511 153.446C57.6181 153.468 57.6872 153.531 57.7185 153.636C57.8225 153.488 57.9494 153.354 58.0991 153.232C58.2512 153.11 58.4024 153.022 58.5525 152.966ZM59.4448 153.603C59.5087 153.388 59.6067 153.182 59.7387 152.986C59.8732 152.788 60.0251 152.619 60.1944 152.477C60.3661 152.334 60.5408 152.229 60.7184 152.164C60.8735 152.107 60.9991 152.089 61.0952 152.11C61.1937 152.131 61.2636 152.176 61.3047 152.248L61.3949 151.945L61.924 151.75L61.2917 153.874L60.7626 154.069L60.855 153.758C60.7578 153.883 60.6392 154 60.4994 154.111C60.3627 154.219 60.2169 154.301 60.0618 154.358C59.8866 154.423 59.7402 154.436 59.6225 154.397C59.5073 154.358 59.4319 154.271 59.3963 154.136C59.3639 153.998 59.3801 153.82 59.4448 153.603ZM61.0787 153.007C61.1175 152.876 61.1256 152.775 61.103 152.701C61.0811 152.625 61.0348 152.578 60.9642 152.561C60.8944 152.541 60.8107 152.549 60.7131 152.585C60.6155 152.621 60.5183 152.679 60.4212 152.758C60.3242 152.837 60.2354 152.933 60.1547 153.047C60.0772 153.158 60.0195 153.277 59.9814 153.405C59.9434 153.533 59.9349 153.636 59.9561 153.714C59.9804 153.79 60.0263 153.838 60.0936 153.858C60.1635 153.878 60.2459 153.87 60.341 153.835C60.4386 153.799 60.5371 153.741 60.6367 153.661C60.7369 153.579 60.8258 153.482 60.9032 153.372C60.9814 153.259 61.0399 153.137 61.0787 153.007ZM62.5901 153.425C62.42 153.488 62.2765 153.514 62.1597 153.502C62.0436 153.488 61.9615 153.442 61.9134 153.364C61.8678 153.286 61.8607 153.182 61.892 153.055L62.4211 152.86C62.4068 152.938 62.4254 152.991 62.477 153.02C62.531 153.048 62.6094 153.043 62.7119 153.005C62.812 152.968 62.8957 152.919 62.9629 152.858C63.0326 152.796 63.077 152.733 63.096 152.669C63.1165 152.6 63.0967 152.562 63.0366 152.554C62.9797 152.543 62.8823 152.545 62.7443 152.56C62.6006 152.578 62.4848 152.586 62.3969 152.582C62.3115 152.577 62.2451 152.546 62.1977 152.488C62.1527 152.43 62.1516 152.329 62.1942 152.186C62.2292 152.068 62.2937 151.949 62.3876 151.828C62.4841 151.706 62.602 151.594 62.7413 151.493C62.8831 151.39 63.0379 151.308 63.2055 151.246C63.4532 151.155 63.6318 151.146 63.7414 151.219C63.8517 151.29 63.8824 151.43 63.8335 151.639L63.3306 151.825C63.3482 151.743 63.333 151.689 63.2849 151.664C63.2401 151.635 63.1664 151.639 63.0638 151.677C62.9687 151.712 62.8896 151.757 62.8264 151.813C62.7657 151.867 62.7259 151.926 62.7068 151.99C62.6855 152.061 62.7042 152.103 62.7628 152.116C62.8222 152.126 62.92 152.123 63.0562 152.107C63.1949 152.09 63.307 152.084 63.3924 152.088C63.4777 152.093 63.5425 152.126 63.5867 152.187C63.6342 152.245 63.6382 152.344 63.5989 152.483C63.5623 152.606 63.4958 152.728 63.3994 152.85C63.3054 152.971 63.1875 153.083 63.0457 153.186C62.9071 153.284 62.7553 153.364 62.5901 153.425ZM64.8239 150.455C64.7313 150.489 64.6625 150.488 64.6175 150.452C64.5757 150.413 64.5681 150.349 64.5948 150.259C64.6214 150.17 64.6735 150.085 64.751 150.004C64.8318 149.919 64.9185 149.86 65.0111 149.826C65.1037 149.792 65.1708 149.794 65.2126 149.833C65.2577 149.869 65.2669 149.932 65.2402 150.021C65.2136 150.111 65.1599 150.198 65.0791 150.282C65.0015 150.363 64.9165 150.42 64.8239 150.455ZM65.0075 150.612L64.3752 152.736L63.8498 152.93L64.4821 150.806L65.0075 150.612ZM66.9964 151.793C66.7512 151.883 66.5435 151.908 66.3734 151.866C66.2032 151.824 66.0889 151.722 66.0305 151.559C65.9728 151.394 65.9831 151.179 66.0615 150.916C66.1391 150.655 66.2688 150.399 66.4505 150.148C66.633 149.894 66.8443 149.671 67.0845 149.477C67.3246 149.284 67.5673 149.142 67.8125 149.052C68.0602 148.96 68.2678 148.936 68.4355 148.979C68.6056 149.021 68.7183 149.125 68.7735 149.291C68.8319 149.454 68.8224 149.665 68.7447 149.926C68.6664 150.189 68.5359 150.448 68.3534 150.702C68.1742 150.952 67.9645 151.174 67.7244 151.367C67.4842 151.561 67.2416 151.702 66.9964 151.793ZM67.1391 151.314C67.2967 151.255 67.4462 151.168 67.5876 151.053C67.7297 150.934 67.8547 150.795 67.9626 150.634C68.0705 150.474 68.1511 150.304 68.2043 150.125C68.2576 149.947 68.2703 149.803 68.2423 149.695C68.2151 149.585 68.1521 149.516 68.0533 149.488C67.9545 149.461 67.8263 149.477 67.6687 149.535C67.5111 149.593 67.3603 149.68 67.2164 149.797C67.075 149.913 66.9504 150.051 66.8425 150.212C66.7354 150.369 66.6552 150.538 66.6019 150.717C66.5486 150.896 66.5356 151.04 66.5628 151.151C66.5901 151.261 66.6527 151.332 66.7507 151.361C66.852 151.388 66.9814 151.372 67.1391 151.314ZM69.5203 150.869C69.3502 150.931 69.2067 150.957 69.0898 150.945C68.9738 150.931 68.8917 150.885 68.8436 150.808C68.798 150.729 68.7908 150.626 68.8221 150.498L69.3513 150.303C69.3369 150.381 69.3556 150.435 69.4071 150.463C69.4612 150.491 69.5395 150.486 69.6421 150.448C69.7422 150.411 69.8258 150.362 69.893 150.301C69.9627 150.239 70.0071 150.176 70.0261 150.112C70.0467 150.043 70.0269 150.005 69.9667 149.997C69.9098 149.987 69.8124 149.988 69.6745 150.003C69.5308 150.022 69.415 150.029 69.3271 150.025C69.2417 150.02 69.1753 149.989 69.1278 149.932C69.0829 149.873 69.0817 149.772 69.1243 149.629C69.1593 149.512 69.2238 149.392 69.3178 149.271C69.4142 149.149 69.5321 149.037 69.6715 148.936C69.8133 148.833 69.968 148.751 70.1357 148.69C70.3833 148.598 70.562 148.589 70.6715 148.662C70.7818 148.733 70.8126 148.873 70.7636 149.082L70.2608 149.268C70.2784 149.186 70.2631 149.133 70.215 149.107C70.1702 149.078 70.0965 149.083 69.9939 149.121C69.8989 149.156 69.8197 149.201 69.7566 149.256C69.6959 149.31 69.656 149.369 69.637 149.433C69.6157 149.505 69.6343 149.547 69.693 149.559C69.7524 149.569 69.8502 149.566 69.9864 149.55C70.1251 149.533 70.2371 149.527 70.3225 149.532C70.4079 149.537 70.4727 149.57 70.5169 149.631C70.5643 149.688 70.5684 149.787 70.529 149.927C70.4925 150.049 70.426 150.172 70.3295 150.294C70.2356 150.415 70.1177 150.526 69.9758 150.629C69.8373 150.728 69.6854 150.808 69.5203 150.869ZM71.6929 150.067C71.4927 150.141 71.3259 150.163 71.1924 150.132C71.0597 150.099 70.9718 150.017 70.9287 149.885C70.8881 149.752 70.9001 149.577 70.9648 149.36C71.0294 149.142 71.1328 148.934 71.2748 148.733C71.4194 148.532 71.5863 148.357 71.7755 148.207C71.9655 148.055 72.1606 147.942 72.3608 147.869C72.5609 147.795 72.7286 147.774 72.8638 147.806C72.9998 147.835 73.0893 147.916 73.1325 148.048C73.1781 148.179 73.1685 148.353 73.1038 148.571C73.0392 148.788 72.9333 148.997 72.7863 149.2C72.6417 149.401 72.4732 149.578 72.2807 149.731C72.0915 149.88 71.8955 149.992 71.6929 150.067ZM71.8321 149.599C71.9272 149.564 72.0228 149.509 72.1191 149.432C72.2186 149.352 72.3075 149.256 72.3857 149.143C72.4639 149.03 72.5231 148.905 72.5634 148.77C72.6236 148.568 72.6171 148.433 72.5439 148.364C72.4741 148.292 72.3641 148.284 72.214 148.339C72.0639 148.395 71.9212 148.496 71.7859 148.644C71.6538 148.788 71.5578 148.961 71.4977 149.163C71.4375 149.365 71.4399 149.503 71.5048 149.577C71.5729 149.647 71.682 149.655 71.8321 149.599ZM74.9666 146.911C75.2143 146.819 75.3905 146.826 75.4952 146.931C75.6006 147.033 75.6107 147.227 75.5255 147.513L75.1545 148.759L74.6291 148.953L74.9784 147.78C75.0286 147.611 75.0258 147.497 74.9699 147.438C74.9147 147.377 74.8158 147.372 74.6732 147.425C74.5281 147.479 74.3993 147.567 74.2868 147.69C74.1777 147.81 74.0979 147.955 74.0477 148.123L73.6985 149.296L73.1731 149.49L73.8054 147.366L74.3308 147.173L74.252 147.437C74.3495 147.319 74.4596 147.215 74.5824 147.124C74.7085 147.03 74.8365 146.959 74.9666 146.911Z" fill="white" fill-opacity="0.48"/>
<path d="M24.8218 185.601L24.0822 188.085C24.0011 188.358 24.0083 188.541 24.1038 188.635C24.2004 188.726 24.3745 188.725 24.6259 188.632C24.8811 188.538 25.0992 188.394 25.2803 188.201C25.4625 188.004 25.5942 187.77 25.6752 187.498L26.4149 185.013L27.2086 184.721L26.4706 187.199C26.3691 187.54 26.2097 187.857 25.9926 188.148C25.7803 188.435 25.5346 188.683 25.2553 188.891C24.9797 189.099 24.6937 189.257 24.3972 189.367C24.1045 189.475 23.8557 189.513 23.6509 189.483C23.4499 189.452 23.3148 189.344 23.2455 189.162C23.1775 188.975 23.1942 188.712 23.2958 188.37L24.0337 185.892L24.8218 185.601ZM27.6924 187.526L29.0828 187.014L28.8859 187.675L26.6004 188.518L26.7939 187.868L28.7143 185.491L27.3577 185.991L27.5546 185.33L29.8175 184.495L29.624 185.145L27.6924 187.526ZM29.9039 185.508C30.0215 185.113 30.2128 184.728 30.4779 184.354C30.7479 183.975 31.0586 183.643 31.4102 183.36C31.7667 183.071 32.1326 182.858 32.5079 182.72C32.9469 182.558 33.2973 182.531 33.5591 182.639C33.8209 182.747 33.9569 182.98 33.9673 183.338L33.061 183.672C33.028 183.514 32.9432 183.417 32.8066 183.382C32.6738 183.346 32.5004 183.367 32.2865 183.446C32.0576 183.531 31.8365 183.662 31.6233 183.839C31.4149 184.012 31.2304 184.216 31.0697 184.453C30.9128 184.688 30.7944 184.94 30.7145 185.209C30.6357 185.473 30.6149 185.689 30.652 185.856C30.694 186.018 30.7866 186.122 30.9299 186.168C31.078 186.209 31.2666 186.187 31.4955 186.103C31.7094 186.024 31.9113 185.907 32.1012 185.751C32.296 185.591 32.467 185.398 32.6141 185.173L33.5204 184.839C33.2669 185.298 32.9408 185.703 32.5421 186.055C32.1483 186.401 31.7299 186.656 31.2871 186.82C30.9118 186.958 30.5979 186.997 30.3453 186.937C30.0976 186.871 29.9317 186.716 29.8478 186.47C29.7676 186.223 29.7863 185.903 29.9039 185.508ZM36.4539 184.202L34.8889 184.779L34.4023 185.64L33.5748 185.945L36.1845 181.404L37.1021 181.066L37.3182 184.564L36.4851 184.871L36.4539 184.202ZM36.4317 183.637L36.3631 182.167L35.2946 184.056L36.4317 183.637ZM39.8728 183.622L39.4716 182.377L39.1001 182.514L38.6344 184.078L37.8463 184.369L39.0414 180.355L40.5162 179.811C40.8202 179.699 41.0626 179.659 41.2434 179.691C41.4253 179.72 41.5409 179.809 41.59 179.958C41.6441 180.101 41.6369 180.288 41.5684 180.518C41.4896 180.783 41.3432 181.05 41.1292 181.32C40.9163 181.587 40.6496 181.815 40.3292 182.005L40.7847 183.285L39.8728 183.622ZM39.2799 181.91L39.9385 181.667C40.1524 181.589 40.3273 181.478 40.4632 181.336C40.6002 181.19 40.6967 181.023 40.7526 180.835C40.8074 180.651 40.7971 180.528 40.7217 180.467C40.6475 180.403 40.5034 180.41 40.2895 180.489L39.6309 180.732L39.2799 181.91ZM44.0211 178.518C44.4339 178.366 44.7715 178.315 45.0339 178.365C45.3 178.413 45.4719 178.56 45.5494 178.804C45.6319 179.043 45.6132 179.364 45.4934 179.767C45.3735 180.169 45.1822 180.554 44.9194 180.92C44.6615 181.282 44.3504 181.603 43.9861 181.884C43.6255 182.164 43.2388 182.38 42.826 182.532L41.4525 183.039L42.6476 179.025L44.0211 178.518ZM43.0016 181.858C43.4144 181.706 43.7676 181.473 44.0613 181.16C44.3549 180.847 44.564 180.481 44.6884 180.064C44.8128 179.646 44.7972 179.361 44.6417 179.211C44.4873 179.056 44.2037 179.055 43.7909 179.207L43.2336 179.413L42.4443 182.064L43.0016 181.858ZM46.6004 180.387L45.4607 182.246L44.9541 182.433L45.8011 180.682L46.6004 180.387ZM52.7124 175.312L51.5173 179.326L50.7292 179.616L51.2377 177.908L49.5546 178.529L49.0461 180.237L48.258 180.528L49.4531 176.514L50.2412 176.223L49.7498 177.874L51.4329 177.253L51.9243 175.603L52.7124 175.312ZM54.2649 174.739L53.5252 177.223C53.4442 177.495 53.4514 177.679 53.5469 177.773C53.6435 177.864 53.8176 177.863 54.069 177.77C54.3242 177.676 54.5423 177.532 54.7234 177.339C54.9056 177.142 55.0373 176.908 55.1183 176.636L55.8579 174.151L56.6516 173.858L55.9137 176.337C55.8121 176.678 55.6528 176.995 55.4357 177.286C55.2234 177.573 54.9776 177.82 54.6983 178.029C54.4228 178.237 54.1368 178.395 53.8403 178.504C53.5476 178.612 53.2988 178.651 53.094 178.621C52.893 178.589 52.7579 178.482 52.6886 178.3C52.6205 178.113 52.6373 177.849 52.7389 177.508L53.4768 175.03L54.2649 174.739ZM61.6969 171.997L60.5018 176.011L59.7137 176.302L60.491 173.691L58.6611 176.69L58.0644 176.91L57.7834 174.69L57.0061 177.301L56.218 177.591L57.4131 173.578L58.3081 173.247L58.6692 175.771L60.8075 172.325L61.6969 171.997ZM63.0928 175.091C62.725 175.227 62.4135 175.263 62.1583 175.2C61.9031 175.138 61.7316 174.984 61.644 174.74C61.5574 174.492 61.5729 174.171 61.6905 173.776C61.8069 173.385 62.0014 173.001 62.274 172.624C62.5478 172.243 62.8647 171.908 63.225 171.618C63.5852 171.328 63.9492 171.115 64.317 170.979C64.6885 170.842 65 170.806 65.2515 170.87C65.5067 170.933 65.6757 171.089 65.7585 171.338C65.8462 171.582 65.8318 171.9 65.7154 172.291C65.5978 172.686 65.4021 173.074 65.1284 173.455C64.8596 173.83 64.545 174.163 64.1848 174.453C63.8246 174.743 63.4606 174.955 63.0928 175.091ZM63.3068 174.372C63.5432 174.285 63.7675 174.154 63.9796 173.981C64.1928 173.803 64.3804 173.594 64.5422 173.353C64.704 173.113 64.8249 172.858 64.9048 172.59C64.9847 172.322 65.0036 172.106 64.9616 171.945C64.9208 171.779 64.8263 171.675 64.6781 171.634C64.53 171.594 64.3377 171.617 64.1012 171.704C63.8648 171.791 63.6387 171.922 63.4228 172.098C63.2108 172.271 63.0238 172.479 62.862 172.719C62.7013 172.956 62.581 173.208 62.5011 173.477C62.4212 173.745 62.4017 173.962 62.4425 174.128C62.4833 174.294 62.5773 174.399 62.7243 174.444C62.8762 174.483 63.0704 174.459 63.3068 174.372ZM67.3171 172.069C67.4129 171.747 67.5599 171.438 67.7579 171.143C67.9597 170.847 68.1894 170.592 68.447 170.377C68.7046 170.163 68.9667 170.006 69.2331 169.908C69.4358 169.833 69.6153 169.808 69.7718 169.832C69.9295 169.852 70.0404 169.917 70.1047 170.027L70.555 168.514L71.3544 168.219L70.0874 172.475L69.2881 172.77L69.4285 172.298C69.2841 172.491 69.1094 172.668 68.9045 172.829C68.6996 172.99 68.4808 173.114 68.2481 173.199C67.9855 173.296 67.7658 173.316 67.5893 173.258C67.4127 173.2 67.2977 173.071 67.2443 172.868C67.1958 172.661 67.22 172.394 67.3171 172.069ZM69.7679 171.175C69.8262 170.979 69.8383 170.826 69.8043 170.716C69.7715 170.602 69.7021 170.532 69.5962 170.506C69.4915 170.476 69.3659 170.489 69.2195 170.543C69.0732 170.597 68.9272 170.683 68.7817 170.801C68.6362 170.92 68.5029 171.065 68.3819 171.236C68.2657 171.401 68.1791 171.58 68.122 171.772C68.065 171.963 68.0523 172.118 68.0839 172.236C68.1205 172.349 68.1893 172.421 68.2903 172.452C68.3951 172.481 68.5188 172.47 68.6614 172.417C68.8077 172.363 68.9556 172.276 69.1048 172.156C69.2553 172.033 69.3886 171.888 69.5047 171.722C69.622 171.553 69.7097 171.37 69.7679 171.175ZM71.1321 170.661C71.228 170.339 71.375 170.031 71.573 169.736C71.7748 169.44 72.0026 169.185 72.2565 168.972C72.5141 168.757 72.7761 168.601 73.0425 168.503C73.2752 168.417 73.4636 168.39 73.6077 168.422C73.7555 168.453 73.8603 168.522 73.922 168.629L74.0573 168.174L74.851 167.882L73.9025 171.067L73.1088 171.36L73.2474 170.894C73.1016 171.081 72.9238 171.258 72.714 171.424C72.509 171.585 72.2903 171.708 72.0576 171.794C71.7949 171.891 71.5753 171.911 71.3987 171.853C71.2259 171.794 71.1128 171.663 71.0594 171.461C71.0109 171.254 71.0351 170.987 71.1321 170.661ZM73.583 169.767C73.6412 169.572 73.6534 169.419 73.6194 169.308C73.5866 169.194 73.5172 169.124 73.4113 169.099C73.3065 169.069 73.181 169.081 73.0346 169.135C72.8882 169.189 72.7423 169.275 72.5968 169.394C72.4512 169.512 72.318 169.657 72.1969 169.828C72.0808 169.994 71.9942 170.173 71.9371 170.364C71.88 170.556 71.8673 170.711 71.899 170.829C71.9356 170.941 72.0044 171.013 72.1054 171.044C72.2102 171.074 72.3338 171.062 72.4765 171.01C72.6228 170.956 72.7706 170.869 72.9199 170.749C73.0703 170.625 73.2036 170.481 73.3198 170.315C73.4371 170.145 73.5248 169.963 73.583 169.767ZM79.8824 165.288L79.6889 165.938L78.6419 166.324L77.6403 169.688L76.8522 169.979L77.8538 166.615L76.8068 167.001L77.0003 166.351L79.8824 165.288ZM82.6562 166.359C82.6219 166.474 82.5836 166.58 82.5412 166.677L80.2614 167.518C80.2117 167.742 80.2368 167.893 80.3369 167.972C80.4369 168.051 80.5883 168.053 80.7909 167.978C81.0836 167.87 81.3301 167.665 81.5305 167.363L82.3805 167.049C82.1991 167.389 81.9511 167.706 81.6366 167.999C81.3232 168.289 80.9807 168.502 80.6092 168.639C80.309 168.75 80.0587 168.783 79.8585 168.737C79.6632 168.686 79.5351 168.561 79.4741 168.362C79.417 168.161 79.4369 167.898 79.5339 167.572C79.6321 167.242 79.784 166.928 79.9895 166.631C80.195 166.333 80.436 166.074 80.7124 165.852C80.9887 165.631 81.2808 165.463 81.5885 165.35C81.885 165.24 82.1302 165.208 82.324 165.253C82.5216 165.296 82.6483 165.414 82.704 165.609C82.7645 165.798 82.7486 166.048 82.6562 166.359ZM81.9084 166.43C81.9663 166.224 81.9422 166.086 81.8361 166.016C81.7312 165.942 81.5755 165.943 81.3691 166.019C81.174 166.091 80.9906 166.214 80.819 166.386C80.6522 166.554 80.5219 166.75 80.4279 166.976L81.9084 166.43ZM84.5829 167.127L83.9287 166.16L83.5247 167.518L82.7366 167.808L84.0035 163.553L84.7916 163.262L84.0708 165.683L85.5202 163.945L86.5447 163.567L84.6952 165.673L85.6074 166.749L84.5829 167.127ZM87.4851 162.883C87.3462 162.934 87.243 162.933 87.1755 162.879C87.1128 162.82 87.1014 162.724 87.1414 162.59C87.1813 162.456 87.2595 162.328 87.3758 162.206C87.497 162.08 87.627 161.991 87.7659 161.94C87.9047 161.888 88.0055 161.892 88.0682 161.951C88.1357 162.005 88.1495 162.098 88.1096 162.233C88.0697 162.367 87.9891 162.497 87.8679 162.624C87.7515 162.745 87.624 162.831 87.4851 162.883ZM87.7605 163.119L86.812 166.305L86.0239 166.595L86.9724 163.41L87.7605 163.119ZM90.281 162.148C90.6525 162.011 90.9168 162.021 91.0738 162.178C91.2319 162.331 91.2471 162.623 91.1192 163.052L90.5628 164.921L89.7747 165.212L90.2986 163.452C90.374 163.199 90.3697 163.028 90.2858 162.94C90.2031 162.847 90.0547 162.841 89.8408 162.92C89.6232 163 89.43 163.133 89.2613 163.318C89.0975 163.498 88.9779 163.714 88.9026 163.967L88.3787 165.727L87.5906 166.017L88.5391 162.832L89.3272 162.541L89.2091 162.938C89.3552 162.761 89.5204 162.604 89.7046 162.468C89.8937 162.327 90.0858 162.22 90.281 162.148Z" fill="white" fill-opacity="0.81"/>
<path d="M190.74 124.893C190.676 125.108 190.565 125.328 190.408 125.553C190.254 125.777 190.054 125.986 189.805 126.18C189.561 126.372 189.277 126.528 188.955 126.647L188.296 126.89L187.837 128.431L187.049 128.722L188.244 124.708L189.691 124.174C189.995 124.062 190.238 124.02 190.42 124.049C190.602 124.077 190.717 124.166 190.766 124.315C190.819 124.463 190.81 124.655 190.74 124.893ZM189.114 126.01C189.332 125.929 189.508 125.82 189.643 125.682C189.779 125.539 189.874 125.376 189.929 125.192C190.045 124.801 189.89 124.685 189.462 124.842L188.837 125.073L188.49 126.24L189.114 126.01ZM190.749 125.929C190.845 125.607 190.992 125.298 191.19 125.003C191.392 124.707 191.619 124.453 191.873 124.239C192.131 124.025 192.393 123.869 192.659 123.77C192.892 123.684 193.08 123.658 193.224 123.69C193.372 123.721 193.477 123.789 193.539 123.896L193.674 123.442L194.468 123.149L193.519 126.335L192.726 126.628L192.864 126.162C192.718 126.349 192.541 126.525 192.331 126.692C192.126 126.852 191.907 126.976 191.674 127.062C191.412 127.159 191.192 127.178 191.015 127.12C190.843 127.061 190.73 126.931 190.676 126.729C190.628 126.521 190.652 126.255 190.749 125.929ZM193.2 125.035C193.258 124.839 193.27 124.686 193.236 124.576C193.203 124.462 193.134 124.392 193.028 124.366C192.923 124.337 192.798 124.349 192.651 124.403C192.505 124.457 192.359 124.543 192.214 124.662C192.068 124.78 191.935 124.925 191.814 125.096C191.698 125.261 191.611 125.44 191.554 125.632C191.497 125.824 191.484 125.978 191.516 126.096C191.552 126.209 191.621 126.281 191.722 126.312C191.827 126.342 191.951 126.33 192.093 126.277C192.24 126.223 192.387 126.137 192.537 126.017C192.687 125.893 192.82 125.748 192.937 125.582C193.054 125.413 193.142 125.23 193.2 125.035ZM198.221 121.765L194.893 127.169L194.054 127.479L195.202 125.642L194.877 122.998L195.761 122.672L195.903 124.601L197.382 122.074L198.221 121.765Z" fill="#000080"/>
<path d="M58.1644 97.3084C58.3197 96.787 58.5765 96.2759 58.9349 95.7751C59.2984 95.2725 59.717 94.8314 60.1908 94.4518C60.6711 94.0653 61.1539 93.7825 61.6393 93.6035C62.1947 93.3986 62.6457 93.3573 62.9923 93.4797C63.3455 93.5951 63.5435 93.8724 63.5865 94.3116L62.5582 94.6909C62.5068 94.4596 62.3816 94.3193 62.1825 94.2699C61.9834 94.2205 61.7262 94.2539 61.411 94.3702C61.0658 94.4976 60.7344 94.6903 60.4171 94.9485C60.0997 95.2066 59.8193 95.5125 59.5759 95.8662C59.3375 96.2181 59.1598 96.5908 59.0426 96.9844C58.9254 97.378 58.8977 97.6953 58.9596 97.9364C59.0264 98.1757 59.1706 98.3272 59.3921 98.3911C59.6151 98.4499 59.8992 98.4156 60.2445 98.2882C60.5597 98.172 60.858 98.0005 61.1392 97.7739C61.4205 97.5473 61.6705 97.2685 61.8893 96.9375L62.9176 96.5581C62.5703 97.1413 62.1379 97.6512 61.6204 98.0878C61.1079 98.5226 60.5739 98.8424 60.0185 99.0473C59.5281 99.2282 59.1145 99.2784 58.7777 99.1979C58.4424 99.1123 58.2163 98.9068 58.0994 98.5814C57.9875 98.2541 58.0092 97.8298 58.1644 97.3084ZM66.927 95.4885L64.7429 96.2943L64.0434 97.5215L63.1503 97.851L66.608 91.825L67.5987 91.4595L67.8788 96.1066L66.9781 96.4388L66.927 95.4885ZM66.8991 94.8641L66.7883 92.7004L65.1953 95.4926L66.8991 94.8641ZM71.4008 94.8072L70.8346 93.1187L70.1816 93.3596L69.547 95.4911L68.6913 95.8068L70.2779 90.478L72.0792 89.8134C72.4795 89.6657 72.796 89.6127 73.0286 89.6543C73.2662 89.694 73.4167 89.8091 73.4803 89.9995C73.5489 90.1881 73.539 90.4306 73.4508 90.7271C73.3473 91.0747 73.1528 91.4285 72.8675 91.7886C72.5886 92.1417 72.2288 92.4451 71.7881 92.6987L72.4216 94.4306L71.4008 94.8072ZM70.3893 92.6619L71.335 92.313C71.6553 92.1948 71.9198 92.0244 72.1286 91.8018C72.3424 91.5773 72.4904 91.3271 72.5726 91.051C72.6548 90.775 72.6387 90.5899 72.5242 90.4956C72.4113 90.3962 72.1922 90.4065 71.8669 90.5265L70.9212 90.8754L70.3893 92.6619ZM76.7239 88.0999C77.2793 87.895 77.732 87.8258 78.0818 87.8924C78.4382 87.952 78.6681 88.1448 78.7715 88.4706C78.8815 88.7895 78.8558 89.2199 78.6945 89.7617C78.5332 90.3036 78.2781 90.8163 77.9292 91.2999C77.5853 91.7817 77.1713 92.2074 76.687 92.5772C76.2093 92.94 75.6928 93.2238 75.1374 93.4287L73.4336 94.0573L75.0202 88.7284L76.7239 88.0999ZM75.3497 92.7157C75.9601 92.4904 76.4782 92.1492 76.9039 91.6918C77.3295 91.2345 77.6337 90.6991 77.8163 90.0857C78.0005 89.4672 77.9817 89.0442 77.7599 88.8166C77.5382 88.5889 77.1221 88.5878 76.5116 88.813L75.6635 89.1258L74.5015 93.0285L75.3497 92.7157Z" fill="#000F9E"/>
<circle cx="6.15451" cy="6.15451" r="6.15451" transform="matrix(0.938191 -0.346117 -0.285354 0.958422 206.512 32.4531)" fill="#000F9E"/>
<circle cx="7.03373" cy="7.03373" r="6.53373" transform="matrix(0.938191 -0.346117 -0.285354 0.958422 214.186 28.875)" fill="#F5FBFF" stroke="#6B8DD7"/>
</g>
<defs>
<filter id="filter0_b_1_50" x="-2627.31" y="-2626.92" width="5506.37" height="5470.48" filterUnits="userSpaceOnUse" color-interpolation-filters="sRGB">
<feFlood flood-opacity="0" result="BackgroundImageFix"/>
<feGaussianBlur in="BackgroundImageFix" stdDeviation="1315"/>
<feComposite in2="SourceAlpha" operator="in" result="effect1_backgroundBlur_1_50"/>
<feBlend mode="normal" in="SourceGraphic" in2="effect1_backgroundBlur_1_50" result="shape"/>
</filter>
<filter id="filter1_b_1_50" x="-24.314" y="-23.9175" width="300.367" height="264.477" filterUnits="userSpaceOnUse" color-interpolation-filters="sRGB">
<feFlood flood-opacity="0" result="BackgroundImageFix"/>
<feGaussianBlur in="BackgroundImageFix" stdDeviation="13.5"/>
<feComposite in2="SourceAlpha" operator="in" result="effect1_backgroundBlur_1_50"/>
<feBlend mode="normal" in="SourceGraphic" in2="effect1_backgroundBlur_1_50" result="shape"/>
</filter>
<linearGradient id="paint0_linear_1_50" x1="-14.5071" y1="-26.8161" x2="291.021" y2="188.152" gradientUnits="userSpaceOnUse">
<stop stop-color="#C9D8F5"/>
<stop offset="1" stop-color="#2559C3"/>
</linearGradient>
</defs>
</svg>
