<svg width="26" height="26" viewBox="0 0 26 26" fill="none" xmlns="http://www.w3.org/2000/svg">
<mask id="path-1-inside-1_1_166" fill="white">
<path d="M6.5 19.5C2.91015 15.9102 2.91015 10.0899 6.5 6.5C10.0899 2.91015 15.9102 2.91015 19.5 6.5C23.0899 10.0899 23.0899 15.9101 19.5 19.5L13.3824 25.6176C13.1712 25.8288 12.8288 25.8288 12.6176 25.6176L6.5 19.5Z"/>
</mask>
<path d="M6.5 19.5C2.91015 15.9102 2.91015 10.0899 6.5 6.5C10.0899 2.91015 15.9102 2.91015 19.5 6.5C23.0899 10.0899 23.0899 15.9101 19.5 19.5L13.3824 25.6176C13.1712 25.8288 12.8288 25.8288 12.6176 25.6176L6.5 19.5Z" stroke="white" stroke-opacity="0.89" stroke-width="2.8" mask="url(#path-1-inside-1_1_166)"/>
<path d="M9.14082 16.8599C7.00908 14.7281 7.00908 11.2719 9.14082 9.14014C11.2726 7.0084 14.7288 7.0084 16.8605 9.14014C18.9923 11.2719 18.9923 14.7281 16.8605 16.8599C14.7288 18.9916 11.2726 18.9916 9.14082 16.8599Z" stroke="white" stroke-opacity="0.89" stroke-width="1.4"/>
</svg>
