<svg width="24" height="22" viewBox="0 0 24 22" fill="none" xmlns="http://www.w3.org/2000/svg">
<rect width="3" height="17.2018" rx="1.5" transform="matrix(0.870303 0.492517 -0.50752 0.86164 13.1294 0.147705)" fill="#14141F"/>
<path d="M2.51185 18.1699C3.20995 16.9847 4.74634 16.5731 5.94346 17.2506L6.38679 17.5015L4.68653 20.3881C4.26609 21.1019 3.34078 21.3498 2.6198 20.9418C1.89882 20.5337 1.65518 19.6243 2.07562 18.9105L2.51185 18.1699Z" fill="#14141F"/>
<rect x="16.7524" y="16.1754" width="3" height="7.14144" rx="1.5" transform="rotate(-90 16.7524 16.1754)" fill="#14141F"/>
<path d="M1.60596 16.1754C0.77753 16.1754 0.105957 15.5038 0.105957 14.6754C0.105957 13.847 0.77753 13.1754 1.60596 13.1754H12.8171C14.474 13.1754 15.8171 14.5186 15.8171 16.1754H1.60596Z" fill="#14141F"/>
<rect width="3" height="6.00933" rx="1.5" transform="matrix(0.870302 -0.492517 0.50752 0.86164 7.93994 1.58789)" fill="#14141F"/>
<path d="M13.2906 10.6696C12.4497 9.24202 12.937 7.42319 14.379 6.60716L21.7489 19.1195C22.1694 19.8333 21.9258 20.7427 21.2048 21.1507C20.4838 21.5588 19.5585 21.3109 19.138 20.5971L13.2906 10.6696Z" fill="#14141F"/>
</svg>
