<svg width="30" height="30" viewBox="0 0 30 30" fill="none" xmlns="http://www.w3.org/2000/svg">
<circle cx="15" cy="15" r="14.5" stroke="white"/>
<path d="M18.4886 11.9091V14.6364H10.4091V11.9091H18.4886ZM12.2585 25V10.9631C12.2585 10.0142 12.4432 9.22727 12.8125 8.60227C13.1875 7.97727 13.6989 7.50852 14.3466 7.19602C14.9943 6.88352 15.7301 6.72727 16.554 6.72727C17.1108 6.72727 17.6193 6.76989 18.0795 6.85511C18.5455 6.94034 18.892 7.01705 19.1193 7.08523L18.4716 9.8125C18.3295 9.76705 18.1534 9.72443 17.9432 9.68466C17.7386 9.64489 17.5284 9.625 17.3125 9.625C16.7784 9.625 16.4062 9.75 16.196 10C15.9858 10.2443 15.8807 10.5881 15.8807 11.0312V25H12.2585Z" fill="white"/>
</svg>
