<svg width="140" height="85" viewBox="0 0 140 85" fill="none" xmlns="http://www.w3.org/2000/svg">
<circle cx="16.3421" cy="47.389" r="12.3421" stroke="#FAFDFF" stroke-width="8"/>
<circle cx="85.4359" cy="47.389" r="12.3421" fill="#FAFDFF" stroke="#FAFDFF" stroke-width="8"/>
<mask id="mask0_1_232" style="mask-type:alpha" maskUnits="userSpaceOnUse" x="69" y="31" width="33" height="33">
<circle cx="85.4359" cy="47.389" r="12.3421" fill="#000F9E" stroke="#0013CC" stroke-width="8"/>
</mask>
<g mask="url(#mask0_1_232)">
<circle cx="97.2386" cy="59.1859" r="16.3421" fill="#4DBBFF"/>
</g>
<mask id="path-5-inside-1_1_232" fill="white">
<path d="M138.93 48.4453C139.48 48.4985 139.972 48.0959 139.991 47.5439C140.055 45.6564 139.785 43.7696 139.189 41.9717C138.489 39.8569 137.355 37.9115 135.86 36.2602C134.365 34.6089 132.541 33.2881 130.506 32.3823C128.47 31.4765 126.268 31.0057 124.041 31.0001C121.813 30.9944 119.609 31.454 117.569 32.3494C115.529 33.2448 113.699 34.5564 112.195 36.2C110.691 37.8437 109.547 39.7832 108.836 41.8945C108.232 43.6894 107.952 45.5747 108.007 47.4625C108.023 48.0146 108.513 48.4197 109.063 48.3693L114.054 47.9118C114.604 47.8614 115.003 47.3738 115.014 46.8216C115.032 45.9084 115.189 45.0013 115.482 44.1319C115.881 42.9459 116.524 41.8564 117.368 40.933C118.213 40.0097 119.241 39.2729 120.387 38.7699C121.533 38.2669 122.771 38.0087 124.023 38.0119C125.274 38.0151 126.511 38.2796 127.655 38.7884C128.798 39.2972 129.822 40.0392 130.662 40.9668C131.502 41.8945 132.139 42.9873 132.533 44.1753C132.821 45.0461 132.974 45.9541 132.987 46.8674C132.995 47.4196 133.392 47.9092 133.942 47.9624L138.93 48.4453Z"/>
</mask>
<path d="M138.93 48.4453C139.48 48.4985 139.972 48.0959 139.991 47.5439C140.055 45.6564 139.785 43.7696 139.189 41.9717C138.489 39.8569 137.355 37.9115 135.86 36.2602C134.365 34.6089 132.541 33.2881 130.506 32.3823C128.47 31.4765 126.268 31.0057 124.041 31.0001C121.813 30.9944 119.609 31.454 117.569 32.3494C115.529 33.2448 113.699 34.5564 112.195 36.2C110.691 37.8437 109.547 39.7832 108.836 41.8945C108.232 43.6894 107.952 45.5747 108.007 47.4625C108.023 48.0146 108.513 48.4197 109.063 48.3693L114.054 47.9118C114.604 47.8614 115.003 47.3738 115.014 46.8216C115.032 45.9084 115.189 45.0013 115.482 44.1319C115.881 42.9459 116.524 41.8564 117.368 40.933C118.213 40.0097 119.241 39.2729 120.387 38.7699C121.533 38.2669 122.771 38.0087 124.023 38.0119C125.274 38.0151 126.511 38.2796 127.655 38.7884C128.798 39.2972 129.822 40.0392 130.662 40.9668C131.502 41.8945 132.139 42.9873 132.533 44.1753C132.821 45.0461 132.974 45.9541 132.987 46.8674C132.995 47.4196 133.392 47.9092 133.942 47.9624L138.93 48.4453Z" fill="#FAFDFF" stroke="#FAFDFF" stroke-width="16" mask="url(#path-5-inside-1_1_232)"/>
<rect x="108" y="47" width="7" height="17" fill="#FAFDFF"/>
<rect x="133" y="47" width="7" height="17" fill="#FAFDFF"/>
<path d="M52.298 64.522C49.6687 64.522 47.31 64.058 45.222 63.13C43.134 62.1633 41.4713 60.868 40.234 59.244C39.0353 57.62 38.378 55.822 38.262 53.85H46.44C46.5947 55.0873 47.194 56.112 48.238 56.924C49.3207 57.736 50.6547 58.142 52.24 58.142C53.7867 58.142 54.9853 57.8327 55.836 57.214C56.7253 56.5953 57.17 55.8027 57.17 54.836C57.17 53.792 56.6287 53.0187 55.546 52.516C54.502 51.9747 52.82 51.3947 50.5 50.776C48.1027 50.196 46.1307 49.5967 44.584 48.978C43.076 48.3593 41.7613 47.412 40.64 46.136C39.5573 44.86 39.016 43.1393 39.016 40.974C39.016 39.1953 39.5187 37.5713 40.524 36.102C41.568 34.6327 43.0373 33.4727 44.932 32.622C46.8653 31.7713 49.1273 31.346 51.718 31.346C55.546 31.346 58.6007 32.3127 60.882 34.246C63.1633 36.1407 64.42 38.712 64.652 41.96H56.88C56.764 40.684 56.2227 39.6787 55.256 38.944C54.328 38.1707 53.0713 37.784 51.486 37.784C50.0167 37.784 48.876 38.0547 48.064 38.596C47.2907 39.1373 46.904 39.8913 46.904 40.858C46.904 41.9407 47.4453 42.772 48.528 43.352C49.6107 43.8933 51.2927 44.454 53.574 45.034C55.894 45.614 57.808 46.2133 59.316 46.832C60.824 47.4507 62.1193 48.4173 63.202 49.732C64.3233 51.008 64.9033 52.7093 64.942 54.836C64.942 56.692 64.42 58.3547 63.376 59.824C62.3707 61.2933 60.9013 62.4533 58.968 63.304C57.0733 64.116 54.85 64.522 52.298 64.522Z" fill="#FAFDFF"/>
</svg>
